<?xml version="1.0" encoding="utf-8"?>
<!-- Generator: Adobe Illustrator 16.0.0, SVG Export Plug-In . SVG Version: 6.00 Build 0)  -->
<!DOCTYPE svg PUBLIC "-//W3C//DTD SVG 1.1//EN" "http://www.w3.org/Graphics/SVG/1.1/DTD/svg11.dtd">
<svg version="1.1" id="Calque_1" xmlns="http://www.w3.org/2000/svg" xmlns:xlink="http://www.w3.org/1999/xlink" x="0px" y="0px"
	 width="612px" height="792px" viewBox="0 0 612 792" enable-background="new 0 0 612 792" xml:space="preserve">
<path fill="#686868" d="M581.189,151.439L451.406,21.656C437.484,7.734,418.612-0.155,398.967-0.155H83.25
	C42.258,0,9,33.258,9,74.25v643.5C9,758.742,42.258,792,83.25,792h445.5c40.992,0,74.25-33.258,74.25-74.25V204.033
	C603,184.388,595.111,165.361,581.189,151.439L581.189,151.439z M522.717,198H405V80.283L522.717,198z M83.25,717.75V74.25h247.5
	v160.875c0,20.573,16.552,37.125,37.125,37.125H528.75v445.5H83.25z M470.278,495.464c-18.872-18.563-72.703-13.458-99.619-10.055
	c-26.606-16.242-44.396-38.672-56.925-71.62c6.033-24.905,15.623-62.803,8.354-86.625c-6.497-40.528-58.472-36.506-65.897-9.126
	c-6.806,24.905-0.619,59.555,10.828,103.795c-15.469,36.97-38.517,86.625-54.759,115.087
	c-30.938,15.934-72.703,40.528-78.891,71.466c-5.104,24.44,40.219,85.388,117.717-48.263c34.65-11.446,72.394-25.523,105.807-31.092
	c29.235,15.778,63.422,26.297,86.315,26.297C482.653,555.328,486.521,511.706,470.278,495.464z M163.842,615.811
	c7.889-21.191,37.898-45.633,47.025-54.141C181.477,608.541,163.842,616.894,163.842,615.811L163.842,615.811z M290.067,320.977
	c11.446,0,10.364,49.655,2.784,63.112C286.045,362.587,286.2,320.977,290.067,320.977z M252.323,532.279
	c15.005-26.142,27.844-57.234,38.208-84.613c12.839,23.357,29.236,42.074,46.561,54.914
	C304.917,509.231,276.919,522.844,252.323,532.279z M455.893,524.545c0,0-7.734,9.281-57.699-12.065
	C452.489,508.458,461.461,520.833,455.893,524.545z"/>
</svg>
